<?xml version="1.0" encoding="UTF-8" standalone="no"?>
<!-- Created with Inkscape (http://www.inkscape.org/) -->

<svg
   xmlns:dc="http://purl.org/dc/elements/1.1/"
   xmlns:cc="http://creativecommons.org/ns#"
   xmlns:rdf="http://www.w3.org/1999/02/22-rdf-syntax-ns#"
   xmlns:svg="http://www.w3.org/2000/svg"
   xmlns="http://www.w3.org/2000/svg"
   xmlns:sodipodi="http://sodipodi.sourceforge.net/DTD/sodipodi-0.dtd"
   xmlns:inkscape="http://www.inkscape.org/namespaces/inkscape"
   width="64"
   height="64"
   viewBox="0 0 16.933333 16.933334"
   version="1.1"
   id="svg3818"
   inkscape:version="0.92.3 (2405546, 2018-03-11)"
   sodipodi:docname="gear.svg">
  <defs
     id="defs3812" />
  <sodipodi:namedview
     id="base"
     pagecolor="#ffffff"
     bordercolor="#666666"
     borderopacity="1.0"
     inkscape:pageopacity="0.0"
     inkscape:pageshadow="2"
     inkscape:zoom="3.959798"
     inkscape:cx="48.537802"
     inkscape:cy="21.884753"
     inkscape:document-units="mm"
     inkscape:current-layer="layer1"
     showgrid="false"
     units="px"
     inkscape:window-width="1680"
     inkscape:window-height="988"
     inkscape:window-x="1672"
     inkscape:window-y="-8"
     inkscape:window-maximized="1" />
  <metadata
     id="metadata3815">
    <rdf:RDF>
      <cc:Work
         rdf:about="">
        <dc:format>image/svg+xml</dc:format>
        <dc:type
           rdf:resource="http://purl.org/dc/dcmitype/StillImage" />
        <dc:title></dc:title>
      </cc:Work>
    </rdf:RDF>
  </metadata>
  <g
     inkscape:label="Layer 1"
     inkscape:groupmode="layer"
     id="layer1"
     transform="translate(0,-280.06665)">
    <path
       style="fill:#ffffff;stroke-width:0.06669946"
       d="m 7.632405,296.55637 c -0.2790465,-0.11875 -0.4095455,-0.38147 -0.4906849,-0.98783 -0.1336321,-0.99867 -0.22975,-1.11952 -1.1982588,-1.5066 -0.8737428,-0.34921 -1.0011545,-0.33506 -1.7153224,0.19051 -0.3237822,0.23828 -0.6499612,0.43324 -0.7248419,0.43324 -0.3344494,0 -0.6188246,-0.15302 -1.0173201,-0.5474 -0.560326,-0.55455 -0.5652986,-0.70186 -0.046931,-1.39044 0.6712392,-0.89165 0.6801444,-0.94914 0.2939202,-1.89699 -0.3910629,-0.95973 -0.4797199,-1.03021 -1.4652596,-1.16494 -0.96204943,-0.13153 -1.07017898,-0.25363 -1.07017898,-1.20862 0,-0.59218 0.004076,-0.60742 0.21745213,-0.82052 0.20109347,-0.20081 0.2694308,-0.2235 0.90833115,-0.30165 0.8957364,-0.10957 1.0198144,-0.20952 1.402131,-1.12942 0.2826821,-0.68016 0.3314029,-0.97559 0.2010112,-1.21889 -0.040957,-0.0765 -0.2512128,-0.37698 -0.4672323,-0.6679 -0.5370488,-0.72328 -0.5315671,-0.7902 0.1194175,-1.45819 0.470645,-0.48294 0.533766,-0.52556 0.7783413,-0.52556 0.220106,0 0.3535569,0.0657 0.7712589,0.37961 0.8221676,0.61795 0.8976481,0.62699 1.8962968,0.22737 0.9076774,-0.36319 0.9787942,-0.45547 1.1099439,-1.44012 0.09076,-0.6814 0.1866923,-0.8711 0.5084412,-1.00533 0.2625614,-0.10956 0.8914596,-0.12328 1.2384607,-0.0271 0.3804839,0.10555 0.4576274,0.24497 0.5877705,1.06226 0.078878,0.49533 0.1629377,0.80244 0.2523923,0.92209 0.083697,0.11192 0.3572222,0.27414 0.7274472,0.43141 1.101788,0.46802 1.160641,0.46365 1.980564,-0.14713 0.763808,-0.56899 0.899812,-0.56303 1.55154,0.068 0.697161,0.67504 0.697739,0.81125 0.0073,1.72342 -0.450457,0.59512 -0.475995,0.80757 -0.182507,1.51826 0.460543,1.11522 0.480197,1.13215 1.504745,1.29565 0.994236,0.15867 1.066055,0.22936 1.09212,1.0749 0.02977,0.9656 -0.113768,1.1203 -1.182212,1.27423 -0.857978,0.12362 -0.974702,0.21974 -1.34802,1.11007 -0.372735,0.88894 -0.359198,1.04997 0.145417,1.72958 0.658725,0.88714 0.657766,0.95151 -0.02461,1.6475 -0.686102,0.69979 -0.766335,0.69938 -1.709565,-0.008 -0.684665,-0.51394 -0.871087,-0.50223 -2.256634,0.14168 -0.3283548,0.1526 -0.4620676,0.43556 -0.559059,1.1831 -0.072604,0.55958 -0.1145647,0.69552 -0.2674483,0.86646 -0.1750284,0.1957 -0.202982,0.20329 -0.8043022,0.2183 -0.342633,0.008 -0.6864037,-0.0114 -0.7639332,-0.0445 z m 1.3603833,-4.90384 c 0.5920982,-0.1394 1.0131587,-0.37169 1.5029027,-0.82916 0.983515,-0.91872 1.24569,-2.2981 0.67001,-3.52511 -0.242401,-0.51664 -0.945152,-1.20163 -1.5079638,-1.46986 -1.9551703,-0.93177 -4.3094681,0.23655 -4.6665292,2.31578 -0.2649082,1.54261 0.8163706,3.1219 2.3998745,3.50521 0.5069596,0.12271 1.0890033,0.12386 1.6017058,0.004 z"
       id="path3801"
       inkscape:connector-curvature="0" />
  </g>
</svg>
